<svg width="25" height="24" viewBox="0 0 25 24" fill="none" xmlns="http://www.w3.org/2000/svg">
<path d="M19.5926 15.4331C19.6835 15.411 19.7643 15.3594 19.8207 15.2874C19.894 15.1958 20.5457 14.3016 20.9186 11.1174C21.2049 8.6688 20.6458 6.5114 20.6214 6.4214C20.581 6.2676 20.453 6.15142 20.2931 6.12115C20.1701 6.09906 17.2453 5.55992 13.7975 5.55992C10.9703 5.55992 7.81134 5.93298 6.75555 6.06879C6.38005 4.84242 6.00118 4.15847 5.9835 4.12738C5.93888 4.04884 5.86984 3.98666 5.78733 3.94985C5.7427 3.93185 4.70123 3.47697 3.37097 3.63241C3.14112 3.65859 2.97526 3.86231 3.00304 4.08729C3.03082 4.31228 3.24383 4.47345 3.47116 4.44481C4.30636 4.34991 5.02453 4.54953 5.31079 4.64771C5.44297 4.91605 5.75365 5.59673 6.03991 6.61203C6.07948 6.84928 6.41625 8.88478 6.67641 11.1174C7.00477 13.9171 7.30702 14.916 7.38364 15.1385C7.76167 17.5446 8.28872 18.2834 8.3485 18.3603C8.40575 18.4356 8.48742 18.4879 8.58088 18.5117C8.67349 18.5346 10.9071 19.0778 14.3759 19.0778C17.8447 19.0778 20.0767 18.5346 20.1701 18.5117C20.3958 18.456 20.5322 18.2335 20.4741 18.0151C20.4177 17.7958 20.1887 17.66 19.963 17.7197C19.9411 17.7255 17.7386 18.2605 14.3759 18.2605C11.5495 18.2605 9.53479 17.8801 8.95722 17.7574C8.83093 17.5152 8.55309 16.8721 8.3064 15.5533C9.26705 15.7178 11.286 16.0008 13.7967 16.0008C17.2646 16.0008 19.4974 15.4576 19.5909 15.4347L19.5926 15.4331ZM13.7984 6.37886C16.5742 6.37886 19.0622 6.74702 19.8645 6.87874C19.9975 7.50297 20.2964 9.19404 20.0817 11.025C19.8064 13.3779 19.3787 14.3736 19.2196 14.6771C18.6471 14.7998 16.6374 15.1811 13.7992 15.1811C11.0309 15.1811 8.83093 14.8178 8.12539 14.6869C8.01509 14.2885 7.77598 13.247 7.51498 11.025C7.30871 9.25948 7.05528 7.61423 6.93573 6.87219C8.03277 6.73229 11.0764 6.37886 13.7984 6.37886Z" fill="black"/>
<path d="M10.6285 21.6001C10.9749 21.6001 11.2557 21.3272 11.2557 20.9906C11.2557 20.654 10.9749 20.3811 10.6285 20.3811C10.282 20.3811 10.0012 20.654 10.0012 20.9906C10.0012 21.3272 10.282 21.6001 10.6285 21.6001Z" fill="black"/>
<path d="M17.2368 21.596C17.5833 21.596 17.8641 21.3231 17.8641 20.9865C17.8641 20.6499 17.5833 20.377 17.2368 20.377C16.8904 20.377 16.6096 20.6499 16.6096 20.9865C16.6096 21.3231 16.8904 21.596 17.2368 21.596Z" fill="black"/>
<rect x="0.375" y="-0.375" width="7.65" height="7.65" rx="3.825" transform="matrix(1 0 0 -1 13.7998 10.0498)" fill="white"/>
<rect x="0.375" y="-0.375" width="7.65" height="7.65" rx="3.825" transform="matrix(1 0 0 -1 13.7998 10.0498)" stroke="black" stroke-width="0.75"/>
<path d="M19.9245 6.77504H18.1745V8.52504C18.1745 8.57145 18.156 8.61596 18.1232 8.64878C18.0904 8.6816 18.0459 8.70004 17.9995 8.70004C17.953 8.70004 17.9085 8.6816 17.8757 8.64878C17.8429 8.61596 17.8245 8.57145 17.8245 8.52504V6.77504H16.0745C16.028 6.77504 15.9835 6.7566 15.9507 6.72378C15.9179 6.69096 15.8995 6.64645 15.8995 6.60004C15.8995 6.55363 15.9179 6.50911 15.9507 6.4763C15.9835 6.44348 16.028 6.42504 16.0745 6.42504H17.8245V4.67504C17.8245 4.62863 17.8429 4.58411 17.8757 4.5513C17.9085 4.51848 17.953 4.50004 17.9995 4.50004C18.0459 4.50004 18.0904 4.51848 18.1232 4.5513C18.156 4.58411 18.1745 4.62863 18.1745 4.67504V6.42504H19.9245C19.9709 6.42504 20.0154 6.44348 20.0482 6.4763C20.081 6.50911 20.0995 6.55363 20.0995 6.60004C20.0995 6.64645 20.081 6.69096 20.0482 6.72378C20.0154 6.7566 19.9709 6.77504 19.9245 6.77504Z" fill="black"/>
<path fill-rule="evenodd" clip-rule="evenodd" d="M17.7272 8.79728C17.7994 8.86948 17.8973 8.91004 17.9995 8.91004C18.1016 8.91004 18.1995 8.86948 18.2717 8.79728C18.3439 8.72507 18.3845 8.62715 18.3845 8.52504V6.98504H19.9245C20.0266 6.98504 20.1245 6.94448 20.1967 6.87227C20.2689 6.80007 20.3095 6.70215 20.3095 6.60004C20.3095 6.49793 20.2689 6.4 20.1967 6.3278C20.1245 6.2556 20.0266 6.21504 19.9245 6.21504H18.3845V4.67504C18.3845 4.57293 18.3439 4.475 18.2717 4.4028C18.1995 4.3306 18.1016 4.29004 17.9995 4.29004C17.8973 4.29004 17.7994 4.3306 17.7272 4.4028C17.655 4.475 17.6145 4.57293 17.6145 4.67504V6.21504H16.0745C15.9723 6.21504 15.8744 6.2556 15.8022 6.3278C15.73 6.4 15.6895 6.49793 15.6895 6.60004C15.6895 6.70215 15.73 6.80007 15.8022 6.87227C15.8744 6.94448 15.9723 6.98504 16.0745 6.98504H17.6145V8.52504C17.6145 8.62715 17.655 8.72507 17.7272 8.79728Z" fill="black"/>
</svg>
