<svg width="14" height="15" viewBox="0 0 14 15" fill="none" xmlns="http://www.w3.org/2000/svg">
<path d="M12.9376 6.93753H7.31252V1.31249C7.31252 1.00183 7.06069 0.75 6.75003 0.75C6.43937 0.75 6.18753 1.00183 6.18753 1.31249V6.93751H0.562494C0.251834 6.93753 0 7.18937 0 7.50003C0 7.81069 0.251834 8.06252 0.562494 8.06252H6.18751V13.6875C6.18751 13.9982 6.43934 14.25 6.75 14.25C7.06066 14.25 7.31249 13.9982 7.31249 13.6875V8.06252H12.9375C13.2482 8.06252 13.5 7.81069 13.5 7.50003C13.5001 7.18937 13.2482 6.93753 12.9376 6.93753Z" fill="black"/>
</svg>
