<svg width="8" height="16" viewBox="0 0 8 16" fill="none" xmlns="http://www.w3.org/2000/svg">
    <path d="M7.11438 16.0027C7.02664 16.0032 6.93967 15.9864 6.85844 15.9532C6.77722 15.9201 6.70334 15.8712 6.64105 15.8094L1.19438 10.3627C0.883958 10.0531 0.637673 9.68525 0.46963 9.28028C0.301587 8.87532 0.215088 8.44118 0.215088 8.00273C0.215088 7.56428 0.301587 7.13014 0.46963 6.72517C0.637673 6.3202 0.883958 5.95237 1.19438 5.64273L6.64105 0.196061C6.70321 0.133902 6.777 0.0845948 6.85821 0.0509546C6.93943 0.0173144 7.02647 6.54952e-10 7.11438 0C7.20229 -6.54952e-10 7.28933 0.0173144 7.37055 0.0509546C7.45176 0.0845948 7.52555 0.133902 7.58771 0.196061C7.64987 0.25822 7.69918 0.332014 7.73282 0.413228C7.76646 0.494443 7.78377 0.581488 7.78377 0.669394C7.78377 0.757301 7.76646 0.844346 7.73282 0.925561C7.69918 1.00678 7.64987 1.08057 7.58771 1.14273L2.14105 6.58939C1.76651 6.9644 1.55614 7.47273 1.55614 8.00273C1.55614 8.53273 1.76651 9.04106 2.14105 9.41606L7.58771 14.8627C7.6502 14.9247 7.6998 14.9984 7.73364 15.0797C7.76749 15.1609 7.78491 15.2481 7.78491 15.3361C7.78491 15.4241 7.76749 15.5112 7.73364 15.5924C7.6998 15.6737 7.6502 15.7474 7.58771 15.8094C7.52542 15.8712 7.45154 15.9201 7.37032 15.9532C7.28909 15.9864 7.20212 16.0032 7.11438 16.0027Z" fill="currentColor"/>
</svg>
