<svg width="24" height="24" viewBox="0 0 24 24" fill="none" xmlns="http://www.w3.org/2000/svg">
<path d="M20.6561 4.71897C19.4851 3.62297 17.9631 3.02897 16.4501 3.09097C15.1041 3.14597 13.8621 3.72797 12.9551 4.72997L12.0001 5.78297L11.0451 4.72997C10.1381 3.72897 8.89608 3.14697 7.55008 3.09097C6.04408 3.02797 4.51508 3.62297 3.34408 4.71897C2.24308 5.74997 0.969079 7.84397 1.00108 10.356C1.03308 12.913 2.35908 15.374 4.94208 17.669C5.81108 18.442 6.84208 19.164 8.09608 19.874C9.29708 20.554 10.6471 20.914 11.9991 20.914C13.3511 20.914 14.7011 20.554 15.9021 19.874C17.1561 19.164 18.1871 18.443 19.0561 17.669C21.6391 15.373 22.9651 12.913 22.9971 10.356C23.0291 7.84397 21.7551 5.74997 20.6541 4.71997L20.6561 4.71897ZM18.3931 16.922C17.5771 17.648 16.6011 18.329 15.4111 19.004C13.3071 20.194 10.6921 20.194 8.58908 19.004C7.39908 18.329 6.42308 17.648 5.60708 16.922C3.24408 14.82 2.03008 12.607 2.00208 10.342C1.96508 7.46397 3.81608 5.64697 4.02808 5.44797C4.95908 4.57597 6.15508 4.08597 7.33608 4.08597C8.51708 4.08597 9.56808 4.58797 10.3061 5.40097L11.6311 6.86297C11.8201 7.07197 12.1821 7.07197 12.3711 6.86297L13.6961 5.40097C14.4331 4.58797 15.4001 4.13397 16.4921 4.08997C17.7111 4.04397 18.9971 4.53397 19.9731 5.44797C20.1851 5.64597 22.0361 7.46397 21.9991 10.342C21.9711 12.607 20.7561 14.82 18.3931 16.922Z" fill="white"/>
</svg>
