<svg width="16" height="17" viewBox="0 0 16 17" fill="none" xmlns="http://www.w3.org/2000/svg">
    <path d="M10.1607 6.33667C10.6447 6.82 10.9973 7.422 11.1813 8.07667C11.2307 8.254 11.128 8.438 10.95 8.488C10.7727 8.53867 10.5893 8.43467 10.5393 8.25733C10.3867 7.71267 10.092 7.21133 9.68933 6.80867C9.06133 6.18 8.22533 5.834 7.33667 5.834C6.448 5.834 5.61267 6.18 4.984 6.80867L1.64133 10.1533C1.01267 10.7813 0.666667 11.6173 0.666667 12.506C0.666667 13.3947 1.01267 14.2307 1.64133 14.8587C2.26933 15.4873 3.10533 15.8333 3.994 15.8333C4.88267 15.8333 5.718 15.4873 6.34667 14.8587L8.018 13.1873C8.148 13.0573 8.35933 13.0573 8.48933 13.1873C8.61933 13.3173 8.61933 13.5287 8.48933 13.6587L6.818 15.33C6.064 16.0847 5.06067 16.5 3.994 16.5C2.92733 16.5 1.924 16.0847 1.17 15.33C0.415333 14.576 0 13.5727 0 12.506C0 11.4393 0.415333 10.4367 1.17 9.682L4.51267 6.33667C5.26667 5.582 6.27 5.16667 7.33667 5.16667C8.40333 5.16667 9.40667 5.582 10.1607 6.33667ZM12.004 0.5C10.9367 0.5 9.93467 0.915333 9.18 1.67L7.50867 3.34133C7.37867 3.47133 7.37867 3.68267 7.50867 3.81267C7.63867 3.94267 7.85 3.94267 7.98 3.81267L9.65133 2.14133C10.2793 1.51267 11.1153 1.16667 12.004 1.16667C12.8927 1.16667 13.728 1.51267 14.356 2.14133C14.984 2.76933 15.3307 3.60533 15.3307 4.494C15.3307 5.38267 14.984 6.218 14.356 6.84667L11.0133 10.192C10.3853 10.8207 9.54933 11.1667 8.66067 11.1667C7.772 11.1667 6.936 10.8207 6.308 10.192C5.90533 9.78933 5.61133 9.28867 5.458 8.74333C5.408 8.56533 5.22333 8.46133 5.04667 8.51267C4.86933 8.56267 4.766 8.74667 4.816 8.924C5.00067 9.57933 5.35333 10.1807 5.83667 10.664C6.59067 11.4187 7.594 11.834 8.66067 11.834C9.72733 11.834 10.73 11.4187 11.4847 10.664L14.8273 7.31867C15.582 6.56467 15.9973 5.56133 15.9973 4.49467C15.9973 3.428 15.582 2.42467 14.8273 1.67067C14.0733 0.916 13.07 0.500667 12.004 0.500667V0.5Z" fill="black"/>
</svg>
