<svg width="36" height="16" viewBox="0 0 36 16" fill="none" xmlns="http://www.w3.org/2000/svg">
<path d="M0.171875 15V0.908203H5.99219C9.15625 0.908203 11.0312 2.58789 11.0312 5.41992V5.43945C11.0312 7.29492 10.0449 8.83789 8.48242 9.45312L11.4512 15H8.11133L5.48438 9.89258H3.12109V15H0.171875ZM3.12109 7.65625H5.66992C7.13477 7.65625 8.01367 6.82617 8.01367 5.43945V5.41992C8.01367 4.07227 7.08594 3.21289 5.63086 3.21289H3.12109V7.65625ZM14.2246 3.18359C13.3652 3.18359 12.7012 2.50977 12.7012 1.69922C12.7012 0.888672 13.3652 0.214844 14.2246 0.214844C15.084 0.214844 15.748 0.888672 15.748 1.69922C15.748 2.50977 15.084 3.18359 14.2246 3.18359ZM12.7988 15V4.53125H15.6504V15H12.7988ZM22.3691 15.2148C19.1855 15.2148 17.1836 13.1738 17.1836 9.76562V9.74609C17.1836 6.37695 19.2344 4.31641 22.3594 4.31641C25.4941 4.31641 27.5547 6.35742 27.5547 9.74609V9.76562C27.5547 13.1836 25.5332 15.2148 22.3691 15.2148ZM22.3789 12.9785C23.7656 12.9785 24.6543 11.8066 24.6543 9.76562V9.74609C24.6543 7.72461 23.7461 6.55273 22.3594 6.55273C20.9824 6.55273 20.084 7.72461 20.084 9.74609V9.76562C20.084 11.8164 20.9727 12.9785 22.3789 12.9785ZM29.0293 15V4.53125H31.8809V6.35742H31.9395C32.252 5.06836 33.1016 4.31641 34.3223 4.31641C34.6348 4.31641 34.9277 4.36523 35.1426 4.42383V6.93359C34.9082 6.83594 34.5176 6.77734 34.1074 6.77734C32.7012 6.77734 31.8809 7.61719 31.8809 9.14062V15H29.0293Z" fill="black"/>
</svg>
