<svg width="20" height="20" viewBox="0 0 20 20" fill="none" xmlns="http://www.w3.org/2000/svg">
<path d="M19.4417 13.5058L17.4308 5.68083C16.5025 2.33583 13.4258 0 9.94917 0C6.28083 0 3.16167 2.50167 2.36833 6.075L0.525834 13.6325C0.361667 14.3717 0.541667 15.1367 1.0175 15.7308C1.49417 16.3258 2.205 16.6667 2.9675 16.6667H5.86667C6.25417 18.5658 7.93667 20 9.94917 20C11.9617 20 13.6442 18.5658 14.0317 16.6667H17.0308C17.8192 16.6667 18.545 16.3067 19.0217 15.6792C19.4992 15.0517 19.6508 14.2567 19.4417 13.5058ZM9.94917 19.1667C8.40083 19.1667 7.10667 18.1008 6.73417 16.6667H13.1642C12.7917 18.1008 11.4975 19.1667 9.94917 19.1667ZM18.3583 15.175C18.0408 15.5933 17.5567 15.8333 17.0308 15.8333H2.96833C2.46 15.8333 1.98583 15.6067 1.66833 15.21C1.35083 14.8133 1.23083 14.3042 1.33833 13.8217L3.18 6.26417C3.89 3.06667 6.67417 0.833333 9.94917 0.833333C13.0525 0.833333 15.7992 2.91833 16.6258 5.89583L18.6367 13.7208C18.7775 14.2267 18.6758 14.7567 18.3583 15.175Z" fill="black"/>
</svg>
