<svg width="30" height="30" viewBox="0 0 30 30" fill="none" xmlns="http://www.w3.org/2000/svg">
<path d="M11.25 6.25C11.25 5.5625 11.8125 5 12.5 5C13.1875 5 13.75 5.5625 13.75 6.25C13.75 6.9375 13.1875 7.5 12.5 7.5C11.8125 7.5 11.25 6.9375 11.25 6.25ZM30 5.625V14.375C30 17.475 27.475 20 24.375 20H11.875C8.775 20 6.25 17.475 6.25 14.375V5.625C6.25 2.525 8.775 0 11.875 0H24.375C27.475 0 30 2.525 30 5.625ZM8.6 17.275L16.3125 9.5625C17.3375 8.5375 19 8.5375 20.025 9.5625L21.325 10.8625C21.85 11.375 22.75 11.3875 23.2625 10.8625L28.75 5.375C28.625 3.075 26.7125 1.25 24.3875 1.25H11.875C9.4625 1.25 7.5 3.2125 7.5 5.625V14.375C7.5 15.4875 7.9125 16.5 8.6 17.275ZM28.75 14.375V7.1375L24.1375 11.75C23.15 12.7375 21.4125 12.7375 20.425 11.75L19.125 10.45C18.5875 9.9125 17.7125 9.9125 17.1875 10.45L9.55 18.0875C10.225 18.5125 11.025 18.7625 11.875 18.7625H24.375C26.7875 18.7625 28.75 16.8 28.75 14.3875V14.375ZM23.3 22.5375C22.9625 22.45 22.625 22.65 22.5375 22.9875L21.8875 25.5375C21.25 27.8625 18.8375 29.2375 16.5125 28.6L4.475 25.3375C2.15 24.7 0.775003 22.2875 1.4125 19.9625L3.7125 11.425C3.8 11.0875 3.6 10.75 3.275 10.6625C2.95 10.575 2.6 10.7625 2.5125 11.1L0.200003 19.625C-0.199997 21.075 -0.0124966 22.5875 0.737503 23.9C1.4875 25.2125 2.6875 26.1375 4.1375 26.5375L16.175 29.8C16.675 29.9375 17.175 30 17.6625 30C20.1375 30 22.4 28.3625 23.0875 25.85L23.75 23.3C23.8375 22.9625 23.6375 22.625 23.3 22.5375Z" fill="black"/>
</svg>
