<svg width="20" height="20" viewBox="0 0 20 20" fill="none" xmlns="http://www.w3.org/2000/svg">
<path d="M19.0441 18.4427L14.9124 14.3252C16.0483 13.0144 16.6416 11.1494 16.6866 8.73605C16.5991 3.68021 13.7849 0.877715 8.75742 0.845215C3.66492 0.877715 0.833252 3.79438 0.833252 8.73605C0.833252 13.7769 3.59409 16.611 8.76242 16.6419C11.1549 16.6277 13.0108 16.0494 14.3241 14.9135L18.4566 19.0327C18.7116 19.2619 18.9641 19.1135 19.0458 19.0327C19.2074 18.8694 19.2074 18.6052 19.0441 18.4427ZM8.76242 15.8085C4.07742 15.781 1.75659 13.4694 1.66659 8.74355C1.75325 4.01938 4.07492 1.70855 8.75742 1.67855C13.3849 1.70855 15.7724 4.08771 15.8533 8.73522C15.7666 13.4669 13.4449 15.781 8.76242 15.8085Z" fill="black"/>
</svg>
