<svg width="20" height="20" viewBox="0 0 20 20" fill="none" xmlns="http://www.w3.org/2000/svg">
<path d="M17.5141 12.8849C17.6041 12.8624 17.6841 12.8099 17.7399 12.7366C17.8124 12.6433 18.4574 11.7324 18.8266 8.48911C19.1099 5.99495 18.5566 3.79745 18.5324 3.70578C18.4924 3.54911 18.3657 3.43078 18.2074 3.39995C18.0857 3.37745 15.1907 2.82828 11.7782 2.82828C8.97991 2.82828 5.85324 3.20828 4.80824 3.34661C4.43657 2.09745 4.06157 1.40078 4.04407 1.36911C3.99991 1.28911 3.93157 1.22578 3.84991 1.18828C3.80574 1.16995 2.77491 0.706614 1.45824 0.864947C1.23074 0.891614 1.06657 1.09911 1.09407 1.32828C1.12157 1.55745 1.33241 1.72161 1.55741 1.69245C2.38407 1.59578 3.09491 1.79911 3.37824 1.89911C3.50907 2.17245 3.81657 2.86578 4.09991 3.89995C4.13907 4.14161 4.47241 6.21495 4.72991 8.48911C5.05491 11.3408 5.35407 12.3583 5.42991 12.5849C5.80407 15.0358 6.32574 15.7883 6.38491 15.8666C6.44157 15.9433 6.52241 15.9966 6.61491 16.0208C6.70657 16.0441 8.91741 16.5974 12.3507 16.5974C15.7841 16.5974 17.9932 16.0441 18.0857 16.0208C18.3091 15.9641 18.4441 15.7374 18.3866 15.5149C18.3307 15.2916 18.1041 15.1533 17.8807 15.2141C17.8591 15.2199 15.6791 15.7649 12.3507 15.7649C9.55324 15.7649 7.55907 15.3774 6.98741 15.2524C6.86241 15.0058 6.58741 14.3508 6.34324 13.0074C7.29407 13.1749 9.29241 13.4633 11.7774 13.4633C15.2099 13.4633 17.4199 12.9099 17.5124 12.8866L17.5141 12.8849ZM11.7791 3.66245C14.5266 3.66245 16.9891 4.03745 17.7832 4.17161C17.9149 4.80745 18.2107 6.52995 17.9982 8.39495C17.7257 10.7916 17.3024 11.8058 17.1449 12.1149C16.5782 12.2399 14.5891 12.6283 11.7799 12.6283C9.03991 12.6283 6.86241 12.2583 6.16407 12.1249C6.05491 11.7191 5.81824 10.6583 5.55991 8.39495C5.35574 6.59661 5.10491 4.92078 4.98657 4.16495C6.07241 4.02245 9.08491 3.66245 11.7791 3.66245Z" fill="black"/>
<path d="M8.64159 19.1665C8.98446 19.1665 9.26242 18.8885 9.26242 18.5456C9.26242 18.2028 8.98446 17.9248 8.64159 17.9248C8.29871 17.9248 8.02075 18.2028 8.02075 18.5456C8.02075 18.8885 8.29871 19.1665 8.64159 19.1665Z" fill="black"/>
<path d="M15.1826 19.1626C15.5255 19.1626 15.8034 18.8846 15.8034 18.5417C15.8034 18.1989 15.5255 17.9209 15.1826 17.9209C14.8397 17.9209 14.5618 18.1989 14.5618 18.5417C14.5618 18.8846 14.8397 19.1626 15.1826 19.1626Z" fill="black"/>
</svg>
