<svg width="31" height="30" viewBox="0 0 31 30" fill="none" xmlns="http://www.w3.org/2000/svg">
<g clip-path="url(#clip0_2709_12811)">
<path d="M24.875 5H8V3.125C8 1.4025 6.59875 0 4.875 0H4.25C2.1825 0 0.5 1.6825 0.5 3.75V26.3462C0.5 28.4613 2.15875 30 4.42875 30H24.875C27.9762 30 30.5 27.4762 30.5 24.375V10.625C30.5 7.52375 27.9762 5 24.875 5ZM1.75 3.75C1.75 2.37125 2.87125 1.25 4.25 1.25H4.875C5.90875 1.25 6.75 2.09125 6.75 3.125V20.625C6.75 21.6588 5.90875 22.5 4.875 22.5H4.25C3.325 22.5 2.43375 22.8438 1.75 23.455V3.75ZM29.25 24.375C29.25 26.7913 27.2913 28.75 24.875 28.75H4.25C2.86875 28.75 1.75 27.6313 1.75 26.25C1.75 24.8687 2.86875 23.75 4.25 23.75H4.875C6.60125 23.75 8 22.3512 8 20.625V6.25H24.875C27.2913 6.25 29.25 8.20875 29.25 10.625V24.375Z" fill="black"/>
<path d="M26.75 10.625V24.375C26.75 25.4087 25.9088 26.25 24.875 26.25H12.375C11.3413 26.25 10.5 25.4087 10.5 24.375V10.625C10.5 9.59125 11.3413 8.75 12.375 8.75H13.625C13.97 8.75 14.25 9.03 14.25 9.375C14.25 9.72 13.97 10 13.625 10H12.375C12.0313 10 11.75 10.28 11.75 10.625V13.75H13.625C13.97 13.75 14.25 14.03 14.25 14.375C14.25 14.72 13.97 15 13.625 15H11.75V24.375C11.75 24.72 12.0313 25 12.375 25H18V18.75H16.125C15.78 18.75 15.5 18.47 15.5 18.125C15.5 17.78 15.78 17.5 16.125 17.5H21.125C21.47 17.5 21.75 17.78 21.75 18.125C21.75 18.47 21.47 18.75 21.125 18.75H19.25V25H24.875C25.2188 25 25.5 24.72 25.5 24.375V10.625C25.5 10.28 25.2188 10 24.875 10H19.875C19.5313 10 19.25 10.28 19.25 10.625V13.125C19.25 13.47 18.97 13.75 18.625 13.75C18.28 13.75 18 13.47 18 13.125V10.625C18 9.59125 18.8413 8.75 19.875 8.75H24.875C25.9088 8.75 26.75 9.59125 26.75 10.625Z" fill="black"/>
</g>
<defs>
<clipPath id="clip0_2709_12811">
<rect width="30" height="30" fill="white" transform="translate(0.5)"/>
</clipPath>
</defs>
</svg>
